<?xml version="1.0" standalone="no"?>
<!DOCTYPE svg PUBLIC "-//W3C//DTD SVG 20010904//EN"
 "http://www.w3.org/TR/2001/REC-SVG-20010904/DTD/svg10.dtd">
<svg version="1.0" xmlns="http://www.w3.org/2000/svg"
 width="1280.000000pt" height="824.000000pt" viewBox="0 0 1280.000000 824.000000"
 preserveAspectRatio="xMidYMid meet">
<g transform="translate(0.000000,824.000000) scale(0.100000,-0.100000)"
fill="#000000" stroke="none">
<path d="M3235 8211 c-199 -60 -316 -156 -396 -326 -110 -234 -64 -492 120
-676 149 -148 343 -207 545 -164 228 48 413 236 460 467 20 97 20 139 0 236
-25 122 -73 212 -163 301 -91 91 -162 131 -295 166 -119 31 -157 30 -271 -4z"/>
<path d="M8744 8216 c-124 -33 -208 -80 -289 -161 -268 -267 -228 -707 82
-919 271 -185 650 -113 831 158 77 115 97 185 97 336 0 152 -21 224 -99 339
-87 127 -209 209 -376 250 -101 26 -142 25 -246 -3z"/>
<path d="M2003 7653 c-74 -156 -86 -173 -122 -173 -38 -1 -108 -35 -121 -60
-9 -17 -9 -56 -1 -164 15 -177 18 -190 48 -221 31 -30 23 -30 263 -30 l195 0
53 -150 c29 -82 50 -155 48 -161 -3 -8 -42 -15 -103 -19 -54 -4 -127 -10 -163
-13 l-65 -7 55 -32 c134 -77 372 -154 605 -198 162 -30 317 -47 705 -80 519
-43 700 -66 873 -111 107 -27 187 -64 337 -154 342 -207 977 -561 1045 -583
80 -27 196 -46 374 -63 227 -21 1237 -31 1481 -15 418 28 856 94 1103 166 120
34 261 99 811 372 258 128 492 240 519 248 27 8 126 31 221 51 336 71 498 129
570 203 35 36 40 47 44 99 6 82 0 85 -127 66 -70 -11 -107 -12 -114 -5 -5 5
-18 89 -29 186 -21 195 -20 205 36 205 46 0 151 27 196 50 22 11 47 32 56 46
38 57 55 208 33 289 -14 50 -77 115 -112 115 -41 0 -64 30 -87 115 -12 44 -31
93 -43 109 -39 55 -48 56 -520 56 l-434 0 -31 -120 c-97 -374 -302 -628 -562
-695 -90 -23 -279 -17 -370 13 -179 59 -328 199 -432 407 -55 108 -93 224
-124 373 l-4 22 -1988 -2 -1987 -3 -7 -60 c-18 -140 -75 -306 -150 -433 -18
-31 -69 -93 -113 -137 -64 -64 -97 -89 -165 -122 -116 -56 -192 -73 -332 -73
-232 0 -398 74 -534 238 -101 122 -200 362 -220 535 l-7 57 -269 0 -269 0 -66
-137z m603 7 c28 -135 55 -214 110 -321 104 -202 256 -330 453 -380 106 -28
287 -27 396 1 308 78 509 335 580 740 14 75 3 70 145 70 71 0 131 -4 134 -9 3
-5 -7 -35 -23 -67 -56 -116 -91 -302 -112 -597 -18 -249 8 -504 73 -722 40
-134 45 -160 26 -153 -39 15 -172 49 -248 62 -146 27 -302 44 -675 76 -198 17
-421 38 -495 46 -280 32 -540 93 -732 171 -132 54 -126 66 35 77 89 6 127 13
127 21 0 7 -25 82 -55 168 -30 85 -55 163 -55 172 0 16 -18 17 -219 14 -286
-5 -272 -15 -291 216 -6 76 -8 146 -5 156 7 22 74 59 107 59 33 0 68 11 68 21
0 11 107 237 126 267 l15 22 247 -2 247 -3 21 -105z m4080 97 c2 -7 -5 -66
-17 -132 -21 -122 -26 -164 -54 -430 -23 -218 -15 -570 20 -845 17 -135 44
-574 48 -775 l2 -140 -225 3 c-359 4 -622 28 -774 72 -74 21 -627 326 -1066
588 -189 113 -182 106 -218 214 -111 335 -128 750 -46 1155 29 145 55 218 96
267 l29 36 1100 0 c883 0 1101 -3 1105 -13z m1238 -27 c50 -187 135 -406 204
-524 104 -179 197 -263 435 -397 243 -136 225 -255 -103 -694 -54 -71 -132
-170 -174 -220 -99 -116 -315 -334 -382 -386 l-52 -40 -148 -15 c-96 -10 -296
-18 -561 -21 -394 -5 -411 -5 -421 13 -5 11 -13 80 -16 154 -18 349 -38 645
-51 750 -18 141 -37 469 -34 605 1 103 35 468 45 495 3 8 8 40 10 70 4 53 29
197 40 233 5 16 40 17 602 15 l596 -3 10 -35z m175 3 c6 -21 11 -44 11 -50 0
-30 66 -215 103 -288 80 -161 193 -293 310 -363 158 -95 394 -123 562 -67 255
86 460 358 545 725 7 30 17 61 23 68 15 19 825 17 870 -2 43 -18 62 -49 88
-143 25 -93 57 -133 105 -133 57 0 104 -79 104 -177 0 -53 -18 -139 -36 -175
-24 -47 -120 -83 -277 -103 -42 -6 -47 -9 -42 -28 3 -12 14 -107 25 -211 11
-104 22 -192 25 -195 2 -4 51 -1 109 7 57 8 111 12 120 9 29 -12 21 -81 -15
-122 -73 -83 -228 -138 -624 -220 -71 -15 -161 -39 -198 -52 -37 -13 -282
-131 -545 -261 -547 -272 -656 -321 -813 -362 -185 -49 -589 -118 -610 -104
-6 3 55 70 133 148 271 270 567 656 647 844 44 105 38 200 -17 257 -65 67
-105 97 -148 112 -115 39 -289 185 -372 313 -51 77 -131 241 -139 284 -4 17
-12 40 -19 51 -20 32 -86 253 -79 265 3 5 37 10 75 10 l69 0 10 -37z"/>
<path d="M3773 6713 c-7 -2 -13 -22 -13 -43 0 -35 2 -38 35 -44 19 -4 51 -4
70 0 33 6 35 9 35 44 0 25 -5 40 -16 44 -18 7 -93 7 -111 -1z"/>
<path d="M6140 6720 c-9 -5 -15 -25 -15 -50 0 -25 6 -45 15 -50 8 -5 74 -10
145 -10 72 0 137 5 145 10 9 5 15 25 15 50 0 25 -6 45 -15 50 -8 5 -73 10
-145 10 -71 0 -137 -5 -145 -10z"/>
<path d="M4570 6271 c0 -29 232 -193 500 -353 313 -188 596 -331 714 -362 112
-29 440 -56 689 -56 l139 0 -6 63 c-3 34 -15 195 -26 357 -12 162 -23 310 -26
328 l-5 32 -989 0 c-598 0 -990 -4 -990 -9z"/>
<path d="M8176 6714 c-9 -8 -16 -28 -16 -44 0 -54 18 -60 164 -60 89 0 136 4
144 12 18 18 15 95 -4 102 -9 3 -73 6 -144 6 -104 0 -132 -3 -144 -16z"/>
<path d="M6760 6243 c0 -21 7 -173 15 -338 8 -165 15 -322 15 -348 l0 -49 468
4 c376 4 477 7 518 19 127 37 295 205 488 486 78 114 156 241 156 255 0 5
-373 8 -830 8 l-830 0 0 -37z"/>
<path d="M9554 6791 c-46 -28 -64 -59 -64 -109 0 -81 51 -132 133 -132 134 0
175 194 52 246 -47 19 -84 18 -121 -5z"/>
<path d="M8846 6281 l-60 -7 -289 -294 c-158 -162 -312 -322 -340 -354 l-52
-59 60 5 c123 12 600 166 782 252 61 30 176 91 255 136 258 149 527 310 533
320 7 11 -787 12 -889 1z"/>
<path d="M11470 5806 l-165 -94 0 -1607 0 -1607 178 -74 178 -75 72 44 c98 59
101 60 128 30 33 -36 79 -53 140 -53 49 0 55 3 93 43 34 35 53 47 109 61 82
22 154 68 182 116 20 34 20 53 25 795 l5 760 136 3 c124 2 137 1 159 -18 30
-26 52 -25 76 1 19 21 18 21 -9 45 -27 23 -30 23 -58 9 -23 -12 -59 -15 -167
-13 l-137 3 -5 735 c-6 810 -2 772 -67 818 -39 27 -116 52 -163 52 -39 0 -70
20 -70 45 0 7 -12 23 -27 35 -24 19 -38 21 -95 18 -63 -3 -71 -6 -107 -42
l-39 -38 -92 51 c-51 28 -98 51 -104 51 -6 0 -85 -42 -176 -94z m285 14 l80
-45 3 -305 c3 -280 2 -306 -14 -317 -13 -10 -77 -13 -247 -13 -207 0 -231 2
-243 18 -10 13 -13 72 -13 257 1 132 4 251 8 265 5 19 42 45 160 112 94 52
160 84 170 80 9 -3 52 -26 96 -52z m321 15 l24 -24 -2 -1686 -3 -1687 -28 -24
c-45 -39 -133 -30 -184 18 l-23 21 0 1663 0 1662 27 32 c33 39 55 49 116 49
38 1 53 -4 73 -24z m216 -102 c24 -11 56 -36 69 -54 l24 -34 0 -1500 c0 -1665
5 -1543 -69 -1596 -43 -32 -168 -75 -186 -64 -7 4 -10 519 -10 1642 l0 1636
63 -5 c35 -3 84 -14 109 -25z m-457 -1623 l0 -995 -255 0 -255 0 -3 985 c-1
542 0 991 3 998 3 10 60 12 257 10 l253 -3 0 -995z m-11 -1046 c15 -22 17 -58
15 -299 -1 -150 -5 -278 -8 -283 -9 -14 -160 -102 -176 -102 -7 0 -82 29 -168
65 l-155 66 -6 37 c-3 20 -6 137 -6 260 0 180 3 229 15 252 l16 30 228 0 229
0 16 -26z"/>
<path d="M11964 5555 c-9 -23 3 -45 25 -45 20 0 37 32 26 50 -9 15 -45 12 -51
-5z"/>
<path d="M11964 4605 c-9 -23 3 -45 25 -45 21 0 33 22 25 45 -4 8 -15 15 -25
15 -11 0 -22 -7 -25 -15z"/>
<path d="M11964 3655 c-9 -23 3 -45 26 -45 25 0 37 25 20 45 -16 19 -39 19
-46 0z"/>
<path d="M11964 2705 c-9 -23 3 -45 26 -45 25 0 37 25 20 45 -16 19 -39 19
-46 0z"/>
<path d="M364 5883 c-26 -5 -61 -41 -66 -67 -2 -16 -18 -22 -81 -33 -115 -19
-164 -47 -198 -115 -18 -36 -19 -85 -19 -1526 0 -1361 1 -1492 16 -1523 35
-71 99 -115 211 -144 46 -12 65 -23 91 -54 26 -32 42 -41 77 -46 56 -9 107 8
154 50 l36 33 145 3 c162 5 195 15 238 79 l22 33 -2 420 -3 421 -30 8 c-16 4
-36 15 -42 25 -10 13 -13 163 -13 671 0 710 0 712 54 726 l23 6 6 401 c3 255
2 411 -4 428 -31 82 -106 111 -283 111 l-121 0 -29 36 c-43 54 -102 73 -182
57z m115 -31 c19 -9 44 -30 55 -45 21 -28 21 -29 26 -1675 6 -1847 13 -1677
-71 -1720 -57 -30 -114 -25 -146 13 l-23 26 0 1688 c0 1595 1 1689 18 1703 36
32 91 36 141 10z m-191 -90 c10 -7 12 -341 10 -1638 l-3 -1629 -24 -3 c-32 -5
-138 34 -180 65 -65 50 -61 -55 -61 1585 0 1682 -7 1540 77 1586 59 32 155 50
181 34z m573 -7 c94 -33 107 -65 100 -240 -6 -122 -6 -126 -13 -66 -5 35 -8
79 -8 97 l0 34 -170 0 -170 0 0 -205 c0 -187 2 -206 18 -212 9 -4 21 -11 25
-17 6 -8 10 -7 14 2 3 9 43 12 149 12 87 0 143 -4 139 -9 -3 -5 -1 -12 5 -16
6 -4 10 -57 10 -130 0 -123 0 -125 -26 -142 -55 -35 -54 -28 -54 -748 l0 -666
25 -24 c13 -14 31 -25 38 -25 8 0 17 -6 20 -14 3 -8 4 -198 1 -423 l-5 -408
-26 -27 c-35 -37 -103 -50 -233 -46 l-105 3 -3 75 c-1 41 2 81 7 89 6 10 41
13 149 12 77 -1 152 1 166 5 l26 6 0 199 0 199 -58 0 c-32 0 -63 5 -70 12 -9
9 -12 9 -12 0 0 -15 -56 -16 -65 -2 -5 8 -11 8 -19 1 -7 -6 -33 -9 -58 -8 -86
5 -78 -133 -78 1357 0 730 3 1330 7 1333 13 14 230 7 274 -8z"/>
<path d="M400 5546 c0 -29 28 -42 48 -22 20 20 8 46 -23 46 -20 0 -25 -5 -25
-24z"/>
<path d="M407 4613 c-13 -12 -7 -41 10 -47 21 -8 48 17 40 38 -6 16 -38 22
-50 9z"/>
<path d="M404 3655 c-8 -21 2 -45 19 -45 20 0 40 27 33 45 -7 19 -45 20 -52 0z"/>
<path d="M404 2705 c-8 -21 2 -45 19 -45 20 0 40 27 33 45 -7 19 -45 20 -52 0z"/>
<path d="M2097 5563 c-4 -21 -29 -204 -57 -407 -47 -345 -52 -373 -80 -421
l-30 -52 0 -559 0 -559 30 -64 c27 -56 38 -111 90 -455 33 -215 60 -394 60
-399 0 -4 516 -6 1148 -5 l1147 3 562 137 561 137 244 15 c718 47 1479 49
2311 6 192 -10 223 -15 1007 -160 l809 -150 443 2 443 3 22 145 c39 253 72
520 83 670 13 190 13 1171 0 1375 -10 156 -51 468 -88 670 l-18 100 -434 3
-434 2 -815 -151 c-758 -140 -826 -151 -990 -159 -799 -42 -1657 -42 -2411 0
l-186 11 -534 147 -535 147 -1171 3 -1171 2 -6 -37z m2275 11 c3 -3 1 -22 -4
-42 -6 -20 -12 -55 -13 -76 -2 -21 -11 -70 -20 -107 -54 -239 -56 -270 -66
-919 -6 -338 -8 -750 -6 -915 5 -314 8 -339 63 -580 14 -60 29 -136 33 -167 4
-32 10 -61 14 -64 4 -4 0 -16 -10 -26 -15 -17 -63 -18 -1120 -18 l-1103 0 -10
23 c-5 12 -34 190 -65 396 -54 351 -64 399 -106 483 -12 23 -11 479 0 496 7
12 21 10 80 -9 81 -26 66 -34 136 68 l36 51 -47 66 c-26 36 -55 66 -64 66 -9
0 -42 -9 -72 -19 -41 -14 -59 -16 -67 -8 -7 7 -11 77 -11 208 0 173 2 199 18
220 35 47 42 83 92 457 28 207 55 387 60 400 l10 22 1118 0 c615 0 1121 -2
1124 -6z m6392 -3 c8 -13 72 -411 92 -571 21 -172 32 -1253 15 -1515 -11 -177
-46 -468 -84 -695 l-22 -135 -425 -3 -425 -3 -803 148 c-635 117 -806 151
-813 165 -12 22 -64 286 -84 423 -14 95 -15 208 -12 790 3 646 4 685 24 785
48 234 64 295 82 310 11 10 229 55 607 124 324 60 677 126 784 146 l195 37
432 2 c250 1 434 -2 437 -8z m-4879 -311 c132 -5 289 -13 350 -16 285 -16
1298 -2 1873 24 79 4 148 4 154 1 6 -4 1 -47 -15 -120 -65 -294 -62 -249 -62
-1024 0 -762 -3 -715 56 -1009 17 -82 27 -152 22 -157 -4 -4 -87 -4 -183 1
-809 43 -1630 40 -2314 -6 -126 -8 -232 -11 -236 -7 -10 11 -37 195 -55 373
-21 212 -21 1410 0 1595 23 195 46 338 58 353 7 9 26 11 61 8 28 -3 159 -10
291 -16z m-3768 -1002 c11 -13 30 -38 42 -56 l23 -33 -37 -56 c-34 -52 -39
-55 -69 -50 -18 3 -49 12 -69 21 l-37 15 0 70 0 69 58 20 c72 26 65 26 89 0z"/>
<path d="M9265 5364 c-77 -9 -182 -29 -315 -59 -189 -43 -562 -144 -574 -155
-5 -5 -23 -80 -39 -167 l-30 -158 -4 -649 c-3 -543 -2 -671 12 -785 19 -171
40 -290 51 -301 19 -19 546 -150 784 -196 55 -10 166 -18 313 -21 l227 -5 -2
1248 -3 1249 -195 1 c-107 1 -208 0 -225 -2z"/>
<path d="M6585 2830 c-530 -9 -751 -29 -917 -80 -80 -25 -661 -347 -1051 -582
-168 -102 -227 -128 -365 -162 -172 -43 -312 -61 -777 -101 -667 -56 -849 -84
-1120 -172 -95 -30 -305 -128 -305 -141 0 -5 53 -12 118 -16 153 -9 202 -16
202 -29 0 -20 -103 -302 -112 -308 -5 -3 -96 -4 -202 -1 -274 7 -277 5 -295
-228 -6 -74 -11 -144 -11 -156 0 -32 44 -70 98 -84 26 -7 54 -14 63 -16 9 -3
47 -69 88 -154 l72 -150 266 2 267 3 12 72 c40 234 125 420 254 557 79 83 164
136 275 173 70 23 97 26 215 26 154 1 222 -13 338 -70 79 -39 188 -133 246
-212 78 -106 153 -292 176 -438 6 -37 13 -78 16 -91 l4 -22 1984 0 1984 0 22
98 c82 361 283 623 543 708 112 37 286 40 392 7 177 -56 328 -198 433 -408 48
-97 94 -224 116 -325 l17 -75 442 1 c341 1 448 4 470 14 37 18 66 67 87 151
22 84 38 105 90 113 28 4 47 16 68 42 53 64 65 159 36 284 -24 107 -76 142
-257 172 -38 6 -71 17 -73 23 -6 15 32 364 40 372 3 4 56 1 117 -7 127 -15
129 -14 129 59 0 137 -157 214 -650 316 -221 46 -216 44 -875 372 -242 120
-478 234 -525 252 -284 112 -925 204 -1485 215 -121 2 -418 0 -660 -4z m825
-20 c91 -5 225 -14 298 -21 156 -14 163 -17 310 -155 245 -228 618 -711 682
-880 31 -84 35 -128 16 -179 -22 -56 -60 -89 -183 -158 -54 -31 -121 -73 -150
-94 -28 -21 -69 -51 -92 -68 -22 -16 -40 -33 -41 -37 0 -4 -22 -36 -49 -72
-105 -138 -187 -319 -261 -576 -12 -41 -27 -81 -32 -88 -15 -18 -1171 -18
-1186 1 -9 10 -49 231 -51 277 0 8 -5 43 -11 77 -15 95 -38 358 -40 458 -2
125 17 457 35 595 15 125 28 312 46 660 6 124 15 233 20 242 8 15 30 18 172
21 89 1 205 3 257 4 52 1 169 -2 260 -7z m-720 -42 c0 -52 -27 -560 -35 -673
-4 -44 -13 -132 -20 -195 -15 -124 -34 -433 -36 -595 -1 -96 30 -449 51 -565
34 -198 41 -244 36 -256 -5 -12 -171 -14 -1098 -14 -1228 0 -1119 -7 -1162 78
-72 143 -119 435 -119 752 -1 243 33 459 103 652 l31 86 227 135 c473 281 951
544 1020 562 177 46 432 69 810 73 l192 2 0 -42z m1450 -32 c301 -48 470 -90
625 -156 50 -21 315 -149 590 -285 275 -135 532 -257 570 -270 39 -13 158 -42
265 -65 331 -71 502 -138 550 -215 21 -34 27 -99 10 -110 -6 -4 -60 1 -121 10
-61 9 -113 15 -115 13 -1 -2 -12 -91 -24 -198 -11 -107 -22 -204 -25 -215 -4
-19 3 -22 85 -33 105 -14 188 -43 219 -76 42 -44 64 -203 39 -277 -21 -64 -46
-89 -87 -89 -53 0 -79 -32 -108 -132 -27 -93 -42 -120 -79 -145 -23 -15 -70
-17 -451 -17 -272 -1 -428 3 -433 9 -4 6 -13 36 -20 68 -42 207 -160 434 -294
567 -77 77 -148 122 -248 157 -65 23 -88 26 -208 27 -123 0 -143 -3 -219 -29
-193 -66 -345 -212 -454 -436 -37 -76 -90 -233 -102 -304 -4 -22 -12 -46 -18
-52 -11 -15 -133 -18 -142 -3 -7 11 48 205 75 264 10 23 22 52 25 66 4 14 27
66 50 116 103 221 245 370 439 460 86 39 178 120 200 175 21 52 20 94 -4 171
-52 170 -360 581 -651 870 -82 82 -149 150 -149 153 0 10 57 5 210 -19z
m-3740 -728 c0 -7 -11 -48 -25 -91 -38 -120 -73 -307 -86 -465 -25 -300 32
-746 117 -914 14 -27 22 -53 19 -58 -9 -15 -250 -13 -262 2 -6 7 -13 33 -17
58 -12 84 -47 215 -72 268 -13 29 -24 55 -24 58 0 3 -18 36 -39 72 -107 182
-256 298 -446 348 -95 25 -303 25 -395 1 -258 -68 -455 -286 -540 -599 -11
-42 -25 -102 -30 -133 -5 -32 -15 -63 -21 -71 -16 -19 -481 -21 -497 -1 -5 6
-39 75 -76 152 -54 115 -70 140 -88 143 -55 6 -108 26 -128 47 -21 22 -21 26
-10 166 6 79 18 158 25 176 22 52 45 56 273 50 154 -5 204 -3 207 6 2 7 28 84
59 172 31 88 56 166 56 172 0 7 -30 14 -77 17 -144 12 -183 17 -183 27 0 22
173 91 350 139 225 61 386 84 927 130 536 45 675 63 850 109 130 34 133 34
133 19z"/>
<path d="M6998 2733 l-208 -3 0 -48 c0 -26 -7 -182 -15 -347 -8 -165 -15 -315
-15 -332 l0 -33 830 0 c457 0 830 3 830 6 0 24 -192 311 -290 434 -86 108
-211 228 -274 265 -28 16 -77 35 -110 42 -68 15 -412 22 -748 16z"/>
<path d="M8170 1609 c-7 -12 -9 -36 -5 -55 l6 -35 152 3 152 3 0 50 0 50 -147
3 c-141 2 -147 2 -158 -19z"/>
<path d="M6330 2740 c-336 -12 -501 -32 -617 -76 -256 -96 -938 -498 -1097
-646 l-51 -47 992 -1 992 0 5 33 c7 41 47 602 49 682 2 71 35 65 -273 55z"/>
<path d="M6129 1603 c-6 -15 -6 -36 -1 -52 l9 -26 149 0 149 0 8 25 c5 15 5
36 -2 53 l-11 27 -145 0 -145 0 -11 -27z"/>
<path d="M8111 2672 c6 -17 598 -630 648 -670 l44 -37 262 -9 c326 -11 686 0
658 19 -39 27 -443 265 -594 349 -187 104 -294 151 -494 217 -301 100 -533
158 -524 131z"/>
<path d="M3767 1614 c-4 -4 -7 -25 -7 -46 l0 -39 68 3 67 3 0 40 0 40 -60 3
c-34 2 -64 0 -68 -4z"/>
<path d="M3250 1194 c-201 -43 -370 -197 -442 -404 -76 -220 8 -499 197 -648
68 -54 136 -86 243 -116 113 -32 138 -32 258 -1 133 35 204 75 295 166 90 89
138 179 163 301 20 97 20 139 0 236 -24 119 -75 214 -164 302 -149 149 -346
208 -550 164z"/>
<path d="M8765 1200 c-78 -16 -161 -51 -228 -96 -310 -212 -350 -651 -82 -919
82 -82 175 -133 304 -164 104 -26 128 -26 231 0 167 41 289 123 376 250 78
115 99 187 99 339 0 105 -4 136 -24 193 -31 91 -110 207 -179 264 -137 111
-336 165 -497 133z"/>
</g>
</svg>
